<?xml version="1.0" encoding="UTF-8" standalone="no" ?>
<!DOCTYPE svg PUBLIC "-//W3C//DTD SVG 1.1//EN" "http://www.w3.org/Graphics/SVG/1.1/DTD/svg11.dtd">
<svg xmlns="http://www.w3.org/2000/svg" xmlns:xlink="http://www.w3.org/1999/xlink" version="1.1" width="1080" height="1080" viewBox="0 0 1080 1080" xml:space="preserve">
<desc>Created with Fabric.js 5.2.4</desc>
<defs>
</defs>
<g transform="matrix(1 0 0 1 540 540)" id="65423112-28b3-4a4d-93a8-5a4687e95bc1"  >
</g>
<g transform="matrix(1 0 0 1 540 540)" id="e0f8fc60-911b-4477-8981-5c63913d2e11"  >
<rect style="stroke: none; stroke-width: 1; stroke-dasharray: none; stroke-linecap: butt; stroke-dashoffset: 0; stroke-linejoin: miter; stroke-miterlimit: 4; fill: rgb(255,255,255); fill-rule: nonzero; opacity: 1; visibility: hidden;" vector-effect="non-scaling-stroke"  x="-540" y="-540" rx="0" ry="0" width="1080" height="1080" />
</g>
<g transform="matrix(5.61 0 0 5.61 544.98 541.04)"  >
<g style="" vector-effect="non-scaling-stroke"   >
		<g transform="matrix(4 0 0 4 -43.12 -73.2)"  >
<path style="stroke: none; stroke-width: 1; stroke-dasharray: none; stroke-linecap: butt; stroke-dashoffset: 0; stroke-linejoin: miter; stroke-miterlimit: 4; fill: rgb(116,138,149); fill-rule: nonzero; opacity: 1;" vector-effect="non-scaling-stroke"  transform=" translate(-21.23, -13.7)" d="M 24.35 13.42 C 24.35 13.42 21.9 11 20 8.79 C 18.93 7.559999999999999 18 7.789999999999999 17.93 9.399999999999999 C 17.74 16.029999999999998 20.37 19.4 20.37 19.4 L 24.54 16.4 Z" stroke-linecap="round" />
</g>
		<g transform="matrix(4 0 0 4 43.04 -73.2)"  >
<path style="stroke: none; stroke-width: 1; stroke-dasharray: none; stroke-linecap: butt; stroke-dashoffset: 0; stroke-linejoin: miter; stroke-miterlimit: 4; fill: rgb(116,138,149); fill-rule: nonzero; opacity: 1;" vector-effect="non-scaling-stroke"  transform=" translate(-42.77, -13.7)" d="M 39.65 13.42 C 39.65 13.42 42.1 11 44 8.79 C 45.07 7.559999999999999 46 7.789999999999999 46.07 9.399999999999999 C 46.26 16.029999999999998 43.63 19.4 43.63 19.4 L 39.46 16.4 Z" stroke-linecap="round" />
</g>
		<g transform="matrix(4 0 0 4 -50.74 56.69)"  >
<path style="stroke: none; stroke-width: 1; stroke-dasharray: none; stroke-linecap: butt; stroke-dashoffset: 0; stroke-linejoin: miter; stroke-miterlimit: 4; fill: rgb(246,231,130); fill-rule: nonzero; opacity: 1;" vector-effect="non-scaling-stroke"  transform=" translate(-19.33, -46.18)" d="M 24.31 44.46 L 23.59 43.230000000000004 C 23.23603761853773 42.63182525491977 22.65889263171082 42.198812815260986 21.985594179419422 42.0262683650916 C 21.312295727128024 41.85372391492222 20.59802773344179 41.95578929550799 20 42.31 L 15.68 44.89 C 14.413501496580674 45.64500327521816 13.97157578328802 47.26687064300219 14.68 48.56 L 15.68 50.410000000000004 L 21.87 48.830000000000005 Z" stroke-linecap="round" />
</g>
		<g transform="matrix(4 0 0 4 50.66 56.69)"  >
<path style="stroke: none; stroke-width: 1; stroke-dasharray: none; stroke-linecap: butt; stroke-dashoffset: 0; stroke-linejoin: miter; stroke-miterlimit: 4; fill: rgb(246,231,130); fill-rule: nonzero; opacity: 1;" vector-effect="non-scaling-stroke"  transform=" translate(-44.68, -46.18)" d="M 39.69 44.46 L 40.4 43.230000000000004 C 41.140993483237146 41.98308122369357 42.75161601628264 41.571477687470825 44 42.31 L 48.32 44.89 C 49.59098009679155 45.64159275723823 50.03401646916873 47.267536243862516 49.32 48.56 L 48.32 50.410000000000004 L 42 48.76 Z" stroke-linecap="round" />
</g>
		<g transform="matrix(4 0 0 4 0 64.33)"  >
<path style="stroke: none; stroke-width: 1; stroke-dasharray: none; stroke-linecap: butt; stroke-dashoffset: 0; stroke-linejoin: miter; stroke-miterlimit: 4; fill: rgb(235,184,127); fill-rule: nonzero; opacity: 1;" vector-effect="non-scaling-stroke"  transform=" translate(-32.01, -48.09)" d="M 23.63 47.06 L 23.959999999999997 44.660000000000004 L 26.959999999999997 42.92 L 26.959999999999997 40.17 L 37.059999999999995 40.17 L 37.059999999999995 42.92 L 40.059999999999995 44.660000000000004 L 40.38999999999999 47.07000000000001 L 44.93999999999999 47.52000000000001 C 47.459999999999994 49.06000000000001 49.50999999999999 51.22000000000001 50.07999999999999 54.12000000000001 C 50.169842621617086 54.58452459092364 50.04678428405334 55.064863717201476 49.744654605121745 55.42896871488826 C 49.44252492619015 55.79307371257505 48.993125703484885 56.0026193384163 48.52 56 L 40.26 56 L 32 53 L 23.740000000000002 56 L 15.48 56 C 15.010375842495364 55.996656129294294 14.566578538256637 55.78456966657361 14.268976817973307 55.42126367038357 C 13.971375097689977 55.057957674193524 13.850816691261082 54.58109041220309 13.940000000000001 54.12 C 14.510000000000002 51.22 16.560000000000002 49.059999999999995 19.080000000000002 47.519999999999996 Z" stroke-linecap="round" />
</g>
		<g transform="matrix(4 0 0 4 -0.1 73.33)"  >
<path style="stroke: none; stroke-width: 1; stroke-dasharray: none; stroke-linecap: butt; stroke-dashoffset: 0; stroke-linejoin: miter; stroke-miterlimit: 4; fill: rgb(116,138,149); fill-rule: nonzero; opacity: 1;" vector-effect="non-scaling-stroke"  transform=" translate(-31.98, -50.34)" d="M 40.26 56 C 40.26 56 40.089999999999996 51.81 44.92 47.519999999999996 L 40 44.67 C 35.48007052119104 48.89444724647087 28.459929478808956 48.89444724647087 23.939999999999998 44.67 L 19.05 47.52 C 23.91 51.81 23.74 56 23.74 56 Z" stroke-linecap="round" />
</g>
		<g transform="matrix(4 0 0 4 0.02 5.99)"  >
<path style="stroke: none; stroke-width: 1; stroke-dasharray: none; stroke-linecap: butt; stroke-dashoffset: 0; stroke-linejoin: miter; stroke-miterlimit: 4; fill: rgb(239,200,157); fill-rule: nonzero; opacity: 1;" vector-effect="non-scaling-stroke"  transform=" translate(-32.02, -33.5)" d="M 20.84 27.79 C 20.914508498849983 29.641486787215772 21.25119351654624 31.473053283483445 21.839999999999996 33.23 C 23.66 37.85 27.52 42 32 42 C 36.480000000000004 42 40.34 37.91 42.19 33.28 C 42.77972537238718 31.523290567065676 43.11643470456451 29.691591800021026 43.19 27.839999999999993 L 32 25 Z" stroke-linecap="round" />
</g>
		<g transform="matrix(4 0 0 4 -0.04 -55.21)"  >
<path style="stroke: none; stroke-width: 1; stroke-dasharray: none; stroke-linecap: butt; stroke-dashoffset: 0; stroke-linejoin: miter; stroke-miterlimit: 4; fill: rgb(246,231,130); fill-rule: nonzero; opacity: 1;" vector-effect="non-scaling-stroke"  transform=" translate(-32, -18.2)" d="M 19.9 22.65 C 19.943075025406923 17.17478543560357 23.68686787138175 12.423048361866297 29 11.100000000000001 L 35 11.1 C 40.31313212861825 12.423048361866293 44.05692497459307 17.17478543560357 44.1 22.65 L 32 25.3 Z" stroke-linecap="round" />
</g>
		<g transform="matrix(4 0 0 4 -0.04 -52.44)"  >
<path style="stroke: none; stroke-width: 1; stroke-dasharray: none; stroke-linecap: butt; stroke-dashoffset: 0; stroke-linejoin: miter; stroke-miterlimit: 4; fill: rgb(116,138,149); fill-rule: nonzero; opacity: 1;" vector-effect="non-scaling-stroke"  transform=" translate(-32, -18.89)" d="M 30.1 10 C 29.805775231429763 9.99162829089284 29.521095401489053 10.104830341812923 29.31296287165099 10.312962871650987 C 29.104830341812924 10.52109540148905 28.99162829089284 10.805775231429761 29 11.1 L 29 18.59 C 29.00024233229874 20.80905209345293 27.218809774386177 22.61720613973418 25 22.65 L 19.9 22.65 C 19.67282262721214 22.64998427783203 19.455092412500864 22.74090900343155 19.29539588933322 22.902484309224697 C 19.13569936616558 23.06405961501784 19.04732732447558 23.28283834883607 19.049999999999997 23.509999999999998 L 19.049999999999997 26.93 C 19.04732732447558 27.15716165116393 19.13569936616558 27.375940384982158 19.29539588933322 27.5375156907753 C 19.455092412500864 27.699090996568447 19.67282262721214 27.790015722167972 19.9 27.79 L 44.1 27.79 C 44.327177372787865 27.790015722167972 44.54490758749913 27.699090996568447 44.70460411066678 27.5375156907753 C 44.864300633834425 27.375940384982158 44.95267267552442 27.15716165116393 44.95 26.93 L 44.95 23.51 C 44.95267267552442 23.282838348836073 44.864300633834425 23.064059615017843 44.70460411066678 22.902484309224697 C 44.54490758749914 22.740909003431554 44.327177372787865 22.649984277832033 44.1 22.650000000000002 L 39 22.650000000000002 C 36.78119022561382 22.617206139734183 34.99975766770126 20.809052093452934 35 18.590000000000003 L 35 11.1 C 35.00837170910716 10.805775231429761 34.89516965818708 10.52109540148905 34.68703712834901 10.312962871650987 C 34.47890459851095 10.104830341812923 34.19422476857024 9.99162829089284 33.9 10 Z" stroke-linecap="round" />
</g>
		<g transform="matrix(4 0 0 4 -18.16 -27.25)"  >
<path style="stroke: none; stroke-width: 1; stroke-dasharray: none; stroke-linecap: butt; stroke-dashoffset: 0; stroke-linejoin: miter; stroke-miterlimit: 4; fill: rgb(240,244,247); fill-rule: nonzero; opacity: 1;" vector-effect="non-scaling-stroke"  transform=" translate(-27.47, -25.19)" d="M 27.47 24.19 C 26.917715250169206 24.19 26.47 24.637715250169208 26.47 25.19 C 26.47 25.742284749830795 26.917715250169206 26.19 27.47 26.19 C 28.022284749830792 26.19 28.47 25.742284749830795 28.47 25.19 C 28.47 24.637715250169208 28.022284749830792 24.19 27.47 24.19 Z" stroke-linecap="round" />
</g>
		<g transform="matrix(4 0 0 4 -0.04 -27.25)"  >
<path style="stroke: none; stroke-width: 1; stroke-dasharray: none; stroke-linecap: butt; stroke-dashoffset: 0; stroke-linejoin: miter; stroke-miterlimit: 4; fill: rgb(240,244,247); fill-rule: nonzero; opacity: 1;" vector-effect="non-scaling-stroke"  transform=" translate(-32, -25.19)" d="M 32 24.19 C 31.447715250169207 24.19 31 24.637715250169208 31 25.19 C 31 25.742284749830795 31.447715250169207 26.19 32 26.19 C 32.5522847498308 26.19 33 25.742284749830795 33 25.19 C 33 24.637715250169208 32.5522847498308 24.19 32 24.19 Z" stroke-linecap="round" />
</g>
		<g transform="matrix(4 0 0 4 18.08 -27.25)"  >
<path style="stroke: none; stroke-width: 1; stroke-dasharray: none; stroke-linecap: butt; stroke-dashoffset: 0; stroke-linejoin: miter; stroke-miterlimit: 4; fill: rgb(240,244,247); fill-rule: nonzero; opacity: 1;" vector-effect="non-scaling-stroke"  transform=" translate(-36.53, -25.19)" d="M 36.53 24.19 C 35.977715250169204 24.19 35.53 24.637715250169208 35.53 25.19 C 35.53 25.742284749830795 35.977715250169204 26.19 36.53 26.19 C 37.0822847498308 26.19 37.53 25.742284749830795 37.53 25.19 C 37.53 24.637715250169208 37.0822847498308 24.19 36.53 24.19 Z" stroke-linecap="round" />
</g>
		<g transform="matrix(4 0 0 4 36.2 -27.25)"  >
<path style="stroke: none; stroke-width: 1; stroke-dasharray: none; stroke-linecap: butt; stroke-dashoffset: 0; stroke-linejoin: miter; stroke-miterlimit: 4; fill: rgb(240,244,247); fill-rule: nonzero; opacity: 1;" vector-effect="non-scaling-stroke"  transform=" translate(-41.06, -25.19)" d="M 41.06 24.19 C 40.507715250169205 24.19 40.06 24.637715250169208 40.06 25.19 C 40.06 25.742284749830795 40.507715250169205 26.19 41.06 26.19 C 41.6122847498308 26.19 42.06 25.742284749830795 42.06 25.19 C 42.06 24.637715250169208 41.6122847498308 24.19 41.06 24.19 Z" stroke-linecap="round" />
</g>
		<g transform="matrix(4 0 0 4 -36.28 -27.25)"  >
<path style="stroke: none; stroke-width: 1; stroke-dasharray: none; stroke-linecap: butt; stroke-dashoffset: 0; stroke-linejoin: miter; stroke-miterlimit: 4; fill: rgb(240,244,247); fill-rule: nonzero; opacity: 1;" vector-effect="non-scaling-stroke"  transform=" translate(-22.94, -25.19)" d="M 22.94 24.19 C 22.387715250169208 24.19 21.94 24.637715250169208 21.94 25.19 C 21.94 25.742284749830795 22.387715250169208 26.19 22.94 26.19 C 23.492284749830795 26.19 23.94 25.742284749830795 23.94 25.19 C 23.94 24.637715250169208 23.492284749830795 24.19 22.94 24.19 Z" stroke-linecap="round" />
</g>
		<g transform="matrix(4 0 0 4 -0.04 -47.77)"  >
<path style="stroke: none; stroke-width: 1; stroke-dasharray: none; stroke-linecap: butt; stroke-dashoffset: 0; stroke-linejoin: miter; stroke-miterlimit: 4; fill: rgb(240,244,247); fill-rule: nonzero; opacity: 1;" vector-effect="non-scaling-stroke"  transform=" translate(-32, -20.06)" d="M 31 20.06 C 31 20.612284749830792 31.447715250169207 21.06 32 21.06 L 32 21.06 C 32.5522847498308 21.06 33 20.612284749830792 33 20.06 L 33 20.06 C 33 19.507715250169205 32.5522847498308 19.06 32 19.06 L 32 19.06 C 31.447715250169207 19.06 31 19.507715250169205 31 20.06 Z" stroke-linecap="round" />
</g>
		<g transform="matrix(4 0 0 4 -0.04 -67.73)"  >
<path style="stroke: none; stroke-width: 1; stroke-dasharray: none; stroke-linecap: butt; stroke-dashoffset: 0; stroke-linejoin: miter; stroke-miterlimit: 4; fill: rgb(240,244,247); fill-rule: nonzero; opacity: 1;" vector-effect="non-scaling-stroke"  transform=" translate(-32, -15.07)" d="M 31 15.07 C 31 15.622284749830794 31.447715250169207 16.07 32 16.07 C 32.5522847498308 16.07 33 15.622284749830794 33 15.07 C 33 14.517715250169207 32.5522847498308 14.07 32 14.07 C 31.447715250169207 14.07 31 14.517715250169207 31 15.07 Z" stroke-linecap="round" />
</g>
</g>
</g>
</svg>