<?xml version="1.0" encoding="UTF-8" standalone="no" ?>
<!DOCTYPE svg PUBLIC "-//W3C//DTD SVG 1.1//EN" "http://www.w3.org/Graphics/SVG/1.1/DTD/svg11.dtd">
<svg xmlns="http://www.w3.org/2000/svg" xmlns:xlink="http://www.w3.org/1999/xlink" version="1.1" width="50" height="50" viewBox="0 0 1080 1080" xml:space="preserve">
<desc>Created with Fabric.js 5.2.4</desc>
<defs>
</defs>
<rect x="0" y="0" width="100%" height="100%" fill="transparent"></rect>
<g transform="matrix(1 0 0 1 540 540)" id="65423112-28b3-4a4d-93a8-5a4687e95bc1"  >
</g>
<g transform="matrix(1 0 0 1 540 540)" id="e0f8fc60-911b-4477-8981-5c63913d2e11"  >
<rect style="stroke: none; stroke-width: 1; stroke-dasharray: none; stroke-linecap: butt; stroke-dashoffset: 0; stroke-linejoin: miter; stroke-miterlimit: 4; fill: rgb(255,255,255); fill-rule: nonzero; opacity: 1; visibility: hidden;" vector-effect="non-scaling-stroke"  x="-540" y="-540" rx="0" ry="0" width="1080" height="1080" />
</g>
<g transform="matrix(1.6 0 0 1.6 540 540)"  >
<g style="" vector-effect="non-scaling-stroke"   >
		<g transform="matrix(6.25 0 0 6.25 -0.31 -252.81)"  >
<path style="stroke: none; stroke-width: 1; stroke-dasharray: none; stroke-linecap: butt; stroke-dashoffset: 0; stroke-linejoin: miter; stroke-miterlimit: 4; fill: rgb(88,17,102); fill-rule: nonzero; opacity: 1;" vector-effect="non-scaling-stroke"  transform=" translate(-64.25, -23.05)" d="M 67.3 36.5 L 61.199999999999996 36.5 C 55.99999999999999 36.5 51.8 32.3 51.8 27.1 L 51.8 19 C 51.8 13.8 56 9.6 61.199999999999996 9.6 L 67.3 9.6 C 72.5 9.6 76.7 13.8 76.7 19 L 76.7 27.2 C 76.7 32.3 72.5 36.5 67.3 36.5 z M 61.3 13.4 C 58.199999999999996 13.4 55.699999999999996 15.9 55.699999999999996 19 L 55.699999999999996 27.2 C 55.699999999999996 30.3 58.199999999999996 32.8 61.3 32.8 L 67.39999999999999 32.8 C 70.49999999999999 32.8 72.99999999999999 30.299999999999997 72.99999999999999 27.199999999999996 L 72.99999999999999 19 C 72.99999999999999 15.9 70.49999999999999 13.4 67.39999999999999 13.4 L 61.3 13.4 z" stroke-linecap="round" />
</g>
		<g transform="matrix(6.25 0 0 6.25 0 168.44)"  >
<path style="stroke: none; stroke-width: 1; stroke-dasharray: none; stroke-linecap: butt; stroke-dashoffset: 0; stroke-linejoin: miter; stroke-miterlimit: 4; fill: rgb(255,88,85); fill-rule: nonzero; opacity: 1;" vector-effect="non-scaling-stroke"  transform=" translate(-64.3, -90.45)" d="M 93.4 115.3 L 35.2 115.3 C 24.900000000000002 115.3 16.500000000000004 106.89999999999999 16.500000000000004 96.6 L 16.500000000000004 84.3 C 16.500000000000004 74 24.900000000000006 65.6 35.2 65.6 L 93.4 65.6 C 103.7 65.6 112.10000000000001 74 112.10000000000001 84.3 L 112.10000000000001 96.7 C 112.1 106.9 103.7 115.3 93.4 115.3 z" stroke-linecap="round" />
</g>
		<g transform="matrix(6.25 0 0 6.25 0 168.44)"  >
<path style="stroke: none; stroke-width: 1; stroke-dasharray: none; stroke-linecap: butt; stroke-dashoffset: 0; stroke-linejoin: miter; stroke-miterlimit: 4; fill: rgb(88,17,102); fill-rule: nonzero; opacity: 1;" vector-effect="non-scaling-stroke"  transform=" translate(-64.3, -90.45)" d="M 93.4 117.2 L 35.2 117.2 C 23.800000000000004 117.2 14.600000000000001 108 14.600000000000001 96.6 L 14.600000000000001 84.3 C 14.600000000000001 72.89999999999999 23.8 63.699999999999996 35.2 63.699999999999996 L 93.4 63.699999999999996 C 104.80000000000001 63.699999999999996 114 72.89999999999999 114 84.3 L 114 96.7 C 114 108 104.8 117.2 93.4 117.2 z M 35.2 67.4 C 25.900000000000002 67.4 18.300000000000004 75 18.300000000000004 84.30000000000001 L 18.300000000000004 96.70000000000002 C 18.300000000000004 106.00000000000001 25.900000000000006 113.60000000000002 35.2 113.60000000000002 L 93.4 113.60000000000002 C 102.7 113.60000000000002 110.30000000000001 106.00000000000003 110.30000000000001 96.70000000000002 L 110.30000000000001 84.3 C 110.30000000000001 75 102.70000000000002 67.4 93.4 67.4 L 35.2 67.4 z" stroke-linecap="round" />
</g>
		<g transform="matrix(6.25 0 0 6.25 0.31 103.75)"  >
<path style="stroke: none; stroke-width: 1; stroke-dasharray: none; stroke-linecap: butt; stroke-dashoffset: 0; stroke-linejoin: miter; stroke-miterlimit: 4; fill: rgb(88,17,102); fill-rule: nonzero; opacity: 1;" vector-effect="non-scaling-stroke"  transform=" translate(-64.35, -80.1)" d="M 111.6 82 L 17.1 82 C 16.1 82 15.200000000000001 81.2 15.200000000000001 80.1 C 15.200000000000001 79.1 16 78.19999999999999 17.1 78.19999999999999 L 111.6 78.19999999999999 C 112.6 78.19999999999999 113.5 78.99999999999999 113.5 80.1 C 113.4 81.2 112.6 82 111.6 82 z" stroke-linecap="round" />
</g>
		<g transform="matrix(6.25 0 0 6.25 0 27.28)"  >
<path style="stroke: none; stroke-width: 1; stroke-dasharray: none; stroke-linecap: butt; stroke-dashoffset: 0; stroke-linejoin: miter; stroke-miterlimit: 4; fill: rgb(255,88,85); fill-rule: nonzero; opacity: 1;" vector-effect="non-scaling-stroke"  transform=" translate(-64.3, -67.86)" d="M 99.3 38.2 L 99.3 107.3 C 99.3 117.2 91.2 115.39999999999999 81.4 115.39999999999999 L 47.2 115.39999999999999 C 37.300000000000004 115.39999999999999 29.300000000000004 107.3 29.300000000000004 97.5 L 29.300000000000004 38.2 C 29.300000000000004 31.300000000000004 33.300000000000004 25.200000000000003 39.10000000000001 22.200000000000003 C 41.50000000000001 20.900000000000002 44.30000000000001 20.200000000000003 47.20000000000001 20.200000000000003 L 81.4 20.200000000000003 C 84.30000000000001 20.200000000000003 87.10000000000001 20.900000000000002 89.5 22.200000000000003 C 95.3 25.2 99.3 31.3 99.3 38.2 z" stroke-linecap="round" />
</g>
		<g transform="matrix(6.25 0 0 6.25 0 -155.94)"  >
<path style="stroke: none; stroke-width: 1; stroke-dasharray: none; stroke-linecap: butt; stroke-dashoffset: 0; stroke-linejoin: miter; stroke-miterlimit: 4; fill: rgb(88,17,102); fill-rule: nonzero; opacity: 0.5;" vector-effect="non-scaling-stroke"  transform=" translate(-64.3, -38.55)" d="M 89.5 25.6 L 89.5 46.3 C 89.5 50.199999999999996 86.3 53.5 82.3 53.5 L 46.3 53.5 C 42.4 53.5 39.099999999999994 50.3 39.099999999999994 46.3 L 39.099999999999994 25.6 C 41.49999999999999 24.3 44.3 23.6 47.199999999999996 23.6 L 81.4 23.6 C 84.3 23.7 87.1 24.4 89.5 25.6 z" stroke-linecap="round" />
</g>
		<g transform="matrix(6.25 0 0 6.25 0 197.81)"  >
<path style="stroke: none; stroke-width: 1; stroke-dasharray: none; stroke-linecap: butt; stroke-dashoffset: 0; stroke-linejoin: miter; stroke-miterlimit: 4; fill: rgb(88,17,102); fill-rule: nonzero; opacity: 0.5;" vector-effect="non-scaling-stroke"  transform=" translate(-64.3, -95.15)" d="M 87.5 110.5 L 41.1 110.5 C 38.9 110.5 37.1 108.7 37.1 106.5 L 37.1 83.8 C 37.1 81.6 38.9 79.8 41.1 79.8 L 87.5 79.8 C 89.7 79.8 91.5 81.6 91.5 83.8 L 91.5 106.5 C 91.5 108.7 89.7 110.5 87.5 110.5 z" stroke-linecap="round" />
</g>
		<g transform="matrix(6.25 0 0 6.25 0.31 27.5)"  >
<path style="stroke: none; stroke-width: 1; stroke-dasharray: none; stroke-linecap: butt; stroke-dashoffset: 0; stroke-linejoin: miter; stroke-miterlimit: 4; fill: rgb(88,17,102); fill-rule: nonzero; opacity: 1;" vector-effect="non-scaling-stroke"  transform=" translate(-64.35, -67.9)" d="M 89.1 117.4 C 87.89999999999999 117.4 86.6 117.4 85.3 117.30000000000001 C 83.89999999999999 117.30000000000001 82.5 117.20000000000002 81.1 117.20000000000002 L 46.8 117.20000000000002 C 45.9 117.20000000000002 45 117.20000000000002 44.099999999999994 117.20000000000002 C 37.99999999999999 117.30000000000001 32.8 117.30000000000001 29.699999999999996 114.20000000000002 C 27.899999999999995 112.50000000000001 27.099999999999994 110.00000000000001 27.099999999999994 106.60000000000002 L 27.099999999999994 38.2 C 27.099999999999994 27.300000000000004 35.99999999999999 18.400000000000002 46.89999999999999 18.400000000000002 L 81 18.400000000000002 C 91.9 18.400000000000002 100.8 27.300000000000004 100.8 38.2 L 101.6 107.4 C 101.6 110.60000000000001 100.8 113 99.1 114.60000000000001 C 96.7 116.9 93.2 117.4 89.1 117.4 z M 46.8 113.5 L 81 113.5 C 82.5 113.5 83.9 113.5 85.3 113.6 C 90.2 113.69999999999999 94.5 113.89999999999999 96.39999999999999 112 C 97.3 111.1 97.8 109.6 97.8 107.5 L 97 38.3 C 97 29.4 89.8 22.199999999999996 81 22.199999999999996 L 46.8 22.199999999999996 C 38 22.199999999999996 30.799999999999997 29.399999999999995 30.799999999999997 38.199999999999996 L 30.799999999999997 106.6 C 30.799999999999997 108.89999999999999 31.299999999999997 110.6 32.3 111.6 C 34.3 113.6 38.8 113.6 44.099999999999994 113.5 C 44.9 113.5 45.9 113.5 46.8 113.5 z" stroke-linecap="round" />
</g>
		<g transform="matrix(6.25 0 0 6.25 0 172.81)"  >
<path style="stroke: none; stroke-width: 1; stroke-dasharray: none; stroke-linecap: butt; stroke-dashoffset: 0; stroke-linejoin: miter; stroke-miterlimit: 4; fill: rgb(255,218,142); fill-rule: nonzero; opacity: 1;" vector-effect="non-scaling-stroke"  transform=" translate(-64.3, -91.15)" d="M 87.5 106.5 L 41.1 106.5 C 38.9 106.5 37.1 104.7 37.1 102.5 L 37.1 79.8 C 37.1 77.6 38.9 75.8 41.1 75.8 L 87.5 75.8 C 89.7 75.8 91.5 77.6 91.5 79.8 L 91.5 102.5 C 91.5 104.7 89.7 106.5 87.5 106.5 z" stroke-linecap="round" />
</g>
		<g transform="matrix(6.25 0 0 6.25 0 172.81)"  >
<path style="stroke: none; stroke-width: 1; stroke-dasharray: none; stroke-linecap: butt; stroke-dashoffset: 0; stroke-linejoin: miter; stroke-miterlimit: 4; fill: rgb(88,17,102); fill-rule: nonzero; opacity: 1;" vector-effect="non-scaling-stroke"  transform=" translate(-64.3, -91.15)" d="M 84 108.4 L 44.6 108.4 C 39.4 108.4 35.2 104.2 35.2 99 L 35.2 83.3 C 35.2 78.1 39.400000000000006 73.89999999999999 44.6 73.89999999999999 L 84 73.89999999999999 C 89.2 73.89999999999999 93.4 78.1 93.4 83.3 L 93.4 99 C 93.4 104.2 89.2 108.4 84 108.4 z M 44.6 77.7 C 41.5 77.7 39 80.2 39 83.3 L 39 99 C 39 102.1 41.5 104.6 44.6 104.6 L 84 104.6 C 87.1 104.6 89.6 102.1 89.6 99 L 89.6 83.3 C 89.6 80.2 87.1 77.7 84 77.7 L 44.6 77.7 z" stroke-linecap="round" />
</g>
		<g transform="matrix(6.25 0 0 6.25 0 135.62)"  >
<path style="stroke: none; stroke-width: 1; stroke-dasharray: none; stroke-linecap: butt; stroke-dashoffset: 0; stroke-linejoin: miter; stroke-miterlimit: 4; fill: rgb(88,17,102); fill-rule: nonzero; opacity: 1;" vector-effect="non-scaling-stroke"  transform=" translate(-64.3, -85.2)" d="M 91.5 87.1 L 37.1 87.1 C 36.1 87.1 35.2 86.3 35.2 85.19999999999999 C 35.2 84.09999999999998 36 83.29999999999998 37.1 83.29999999999998 L 91.5 83.29999999999998 C 92.5 83.29999999999998 93.4 84.09999999999998 93.4 85.19999999999999 C 93.4 86.3 92.6 87.1 91.5 87.1 z" stroke-linecap="round" />
</g>
		<g transform="matrix(6.25 0 0 6.25 272.81 169.06)"  >
<path style="stroke: none; stroke-width: 1; stroke-dasharray: none; stroke-linecap: butt; stroke-dashoffset: 0; stroke-linejoin: miter; stroke-miterlimit: 4; fill: rgb(255,218,142); fill-rule: nonzero; opacity: 1;" vector-effect="non-scaling-stroke"  transform=" translate(-107.95, -90.55)" d="M 111.6 80.9 L 111.6 100.2 C 111.39999999999999 100.2 111.19999999999999 100.2 111 100.2 C 107.3 100.2 104.3 97.2 104.3 93.5 L 104.3 81.7 C 104.3 81.4 104.3 81.2 104.39999999999999 80.9 L 111.6 80.9 z" stroke-linecap="round" />
</g>
		<g transform="matrix(6.25 0 0 6.25 272.81 169.06)"  >
<path style="stroke: none; stroke-width: 1; stroke-dasharray: none; stroke-linecap: butt; stroke-dashoffset: 0; stroke-linejoin: miter; stroke-miterlimit: 4; fill: rgb(88,17,102); fill-rule: nonzero; opacity: 1;" vector-effect="non-scaling-stroke"  transform=" translate(-107.95, -90.55)" d="M 111 102.1 C 106.3 102.1 102.4 98.3 102.4 93.5 L 102.4 81.7 C 102.4 81.4 102.4 81.10000000000001 102.5 80.7 C 102.6 79.8 103.4 79 104.4 79 L 111.60000000000001 79 C 112.60000000000001 79 113.50000000000001 79.8 113.50000000000001 80.9 L 113.50000000000001 100.2 C 113.50000000000001 101.10000000000001 112.90000000000002 101.9 112.00000000000001 102 C 111.6 102.1 111.3 102.1 111 102.1 z M 106.2 82.8 L 106.2 93.6 C 106.2 95.8 107.7 97.69999999999999 109.7 98.19999999999999 L 109.7 82.8 L 106.2 82.8 z" stroke-linecap="round" />
</g>
		<g transform="matrix(6.25 0 0 6.25 -272.19 165.94)"  >
<path style="stroke: none; stroke-width: 1; stroke-dasharray: none; stroke-linecap: butt; stroke-dashoffset: 0; stroke-linejoin: miter; stroke-miterlimit: 4; fill: rgb(255,218,142); fill-rule: nonzero; opacity: 1;" vector-effect="non-scaling-stroke"  transform=" translate(-20.75, -90.05)" d="M 17.1 80.4 L 17.1 99.7 C 17.3 99.7 17.5 99.7 17.700000000000003 99.7 C 21.400000000000002 99.7 24.400000000000002 96.7 24.400000000000002 93 L 24.400000000000002 81.3 C 24.400000000000002 81 24.400000000000002 80.8 24.3 80.5 L 17.1 80.5 z" stroke-linecap="round" />
</g>
		<g transform="matrix(6.25 0 0 6.25 -272.19 166.25)"  >
<path style="stroke: none; stroke-width: 1; stroke-dasharray: none; stroke-linecap: butt; stroke-dashoffset: 0; stroke-linejoin: miter; stroke-miterlimit: 4; fill: rgb(88,17,102); fill-rule: nonzero; opacity: 1;" vector-effect="non-scaling-stroke"  transform=" translate(-20.75, -90.1)" d="M 17.6 101.7 C 17.3 101.7 17 101.7 16.700000000000003 101.60000000000001 C 15.800000000000002 101.4 15.200000000000003 100.7 15.200000000000003 99.80000000000001 L 15.200000000000003 80.4 C 15.200000000000003 79.4 16.000000000000004 78.5 17.1 78.5 L 24.3 78.5 C 25.2 78.5 26 79.2 26.2 80.1 C 26.3 80.5 26.3 80.8 26.3 81.19999999999999 L 26.3 93.1 C 26.2 97.9 22.3 101.7 17.6 101.7 z M 18.9 82.3 L 18.9 97.8 C 20.9 97.2 22.4 95.39999999999999 22.4 93.2 L 22.4 82.3 L 18.9 82.3 z" stroke-linecap="round" />
</g>
		<g transform="matrix(6.25 0 0 6.25 -84.69 -26.25)"  >
<rect style="stroke: none; stroke-width: 1; stroke-dasharray: none; stroke-linecap: butt; stroke-dashoffset: 0; stroke-linejoin: miter; stroke-miterlimit: 4; fill: rgb(255,218,142); fill-rule: nonzero; opacity: 1;" vector-effect="non-scaling-stroke"  x="-3.45" y="-9.2" rx="0" ry="0" width="6.9" height="18.4" />
</g>
		<g transform="matrix(6.25 0 0 6.25 85.31 -26.25)"  >
<rect style="stroke: none; stroke-width: 1; stroke-dasharray: none; stroke-linecap: butt; stroke-dashoffset: 0; stroke-linejoin: miter; stroke-miterlimit: 4; fill: rgb(255,218,142); fill-rule: nonzero; opacity: 1;" vector-effect="non-scaling-stroke"  x="-3.45" y="-9.2" rx="0" ry="0" width="6.9" height="18.4" />
</g>
		<g transform="matrix(6.25 0 0 6.25 -84.69 -26.25)"  >
<path style="stroke: none; stroke-width: 1; stroke-dasharray: none; stroke-linecap: butt; stroke-dashoffset: 0; stroke-linejoin: miter; stroke-miterlimit: 4; fill: rgb(88,17,102); fill-rule: nonzero; opacity: 1;" vector-effect="non-scaling-stroke"  transform=" translate(-50.75, -59.3)" d="M 54.2 70.4 L 47.300000000000004 70.4 C 46.300000000000004 70.4 45.400000000000006 69.60000000000001 45.400000000000006 68.5 L 45.400000000000006 50.1 C 45.400000000000006 49.1 46.2 48.2 47.300000000000004 48.2 L 54.2 48.2 C 55.2 48.2 56.1 49 56.1 50.1 L 56.1 68.5 C 56 69.5 55.2 70.4 54.2 70.4 z M 49.2 66.6 L 52.300000000000004 66.6 L 52.300000000000004 52 L 49.2 52 L 49.2 66.6 z" stroke-linecap="round" />
</g>
		<g transform="matrix(6.25 0 0 6.25 84.69 -26.25)"  >
<path style="stroke: none; stroke-width: 1; stroke-dasharray: none; stroke-linecap: butt; stroke-dashoffset: 0; stroke-linejoin: miter; stroke-miterlimit: 4; fill: rgb(88,17,102); fill-rule: nonzero; opacity: 1;" vector-effect="non-scaling-stroke"  transform=" translate(-77.85, -59.3)" d="M 81.3 70.4 L 74.39999999999999 70.4 C 73.39999999999999 70.4 72.49999999999999 69.60000000000001 72.49999999999999 68.5 L 72.49999999999999 50.1 C 72.49999999999999 49.1 73.29999999999998 48.2 74.39999999999999 48.2 L 81.3 48.2 C 82.3 48.2 83.2 49 83.2 50.1 L 83.2 68.5 C 83.2 69.5 82.4 70.4 81.3 70.4 z M 76.3 66.6 L 79.39999999999999 66.6 L 79.39999999999999 52 L 76.3 52 L 76.3 66.6 z" stroke-linecap="round" />
</g>
		<g transform="matrix(6.25 0 0 6.25 84.69 -22.5)"  >
<path style="stroke: none; stroke-width: 1; stroke-dasharray: none; stroke-linecap: butt; stroke-dashoffset: 0; stroke-linejoin: miter; stroke-miterlimit: 4; fill: rgb(88,17,102); fill-rule: nonzero; opacity: 1;" vector-effect="non-scaling-stroke"  transform=" translate(-77.85, -59.9)" d="M 84.4 64.6 L 71.4 64.6 C 70.4 64.6 69.5 63.8 69.5 62.699999999999996 L 69.5 57.099999999999994 C 69.5 56.099999999999994 70.3 55.199999999999996 71.4 55.199999999999996 L 84.30000000000001 55.199999999999996 C 85.30000000000001 55.199999999999996 86.20000000000002 55.99999999999999 86.20000000000002 57.099999999999994 L 86.20000000000002 62.699999999999996 C 86.2 63.7 85.4 64.6 84.4 64.6 z M 73.3 60.8 L 82.5 60.8 L 82.5 59 L 73.3 59 L 73.3 60.8 z" stroke-linecap="round" />
</g>
		<g transform="matrix(6.25 0 0 6.25 84.69 -24.38)"  >
<rect style="stroke: none; stroke-width: 1; stroke-dasharray: none; stroke-linecap: butt; stroke-dashoffset: 0; stroke-linejoin: miter; stroke-miterlimit: 4; fill: rgb(255,255,255); fill-rule: nonzero; opacity: 1;" vector-effect="non-scaling-stroke"  x="-6.45" y="-2.8" rx="0" ry="0" width="12.9" height="5.6" />
</g>
		<g transform="matrix(6.25 0 0 6.25 84.69 -24.38)"  >
<path style="stroke: none; stroke-width: 1; stroke-dasharray: none; stroke-linecap: butt; stroke-dashoffset: 0; stroke-linejoin: miter; stroke-miterlimit: 4; fill: rgb(88,17,102); fill-rule: nonzero; opacity: 1;" vector-effect="non-scaling-stroke"  transform=" translate(-77.85, -59.6)" d="M 84.4 64.3 L 71.4 64.3 C 70.4 64.3 69.5 63.5 69.5 62.4 L 69.5 56.8 C 69.5 55.8 70.3 54.9 71.4 54.9 L 84.30000000000001 54.9 C 85.30000000000001 54.9 86.20000000000002 55.699999999999996 86.20000000000002 56.8 L 86.20000000000002 62.4 C 86.2 63.4 85.4 64.3 84.4 64.3 z M 73.3 60.5 L 82.5 60.5 L 82.5 58.6 L 73.3 58.6 L 73.3 60.5 z" stroke-linecap="round" />
</g>
		<g transform="matrix(6.25 0 0 6.25 -84.69 -24.38)"  >
<rect style="stroke: none; stroke-width: 1; stroke-dasharray: none; stroke-linecap: butt; stroke-dashoffset: 0; stroke-linejoin: miter; stroke-miterlimit: 4; fill: rgb(255,255,255); fill-rule: nonzero; opacity: 1;" vector-effect="non-scaling-stroke"  x="-6.45" y="-2.8" rx="0" ry="0" width="12.9" height="5.6" />
</g>
		<g transform="matrix(6.25 0 0 6.25 -84.69 -24.38)"  >
<path style="stroke: none; stroke-width: 1; stroke-dasharray: none; stroke-linecap: butt; stroke-dashoffset: 0; stroke-linejoin: miter; stroke-miterlimit: 4; fill: rgb(88,17,102); fill-rule: nonzero; opacity: 1;" vector-effect="non-scaling-stroke"  transform=" translate(-50.75, -59.6)" d="M 57.2 64.3 L 44.3 64.3 C 43.3 64.3 42.4 63.5 42.4 62.4 L 42.4 56.8 C 42.4 55.8 43.199999999999996 54.9 44.3 54.9 L 57.199999999999996 54.9 C 58.199999999999996 54.9 59.099999999999994 55.699999999999996 59.099999999999994 56.8 L 59.099999999999994 62.4 C 59.1 63.4 58.2 64.3 57.2 64.3 z M 46.1 60.5 L 55.3 60.5 L 55.3 58.6 L 46.099999999999994 58.6 L 46.099999999999994 60.5 z" stroke-linecap="round" />
</g>
		<g transform="matrix(6.25 0 0 6.25 0 -176.88)"  >
<path style="stroke: none; stroke-width: 1; stroke-dasharray: none; stroke-linecap: butt; stroke-dashoffset: 0; stroke-linejoin: miter; stroke-miterlimit: 4; fill: rgb(255,88,85); fill-rule: nonzero; opacity: 1;" vector-effect="non-scaling-stroke"  transform=" translate(-64.3, -35.2)" d="M 89.5 22.2 L 89.5 43 C 89.5 46.9 86.3 50.2 82.3 50.2 L 46.3 50.2 C 42.4 50.2 39.099999999999994 47 39.099999999999994 43 L 39.099999999999994 22.2 C 41.49999999999999 20.9 44.3 20.2 47.199999999999996 20.2 L 81.4 20.2 C 84.3 20.3 87.1 21 89.5 22.2 z" stroke-linecap="round" />
</g>
		<g transform="matrix(6.25 0 0 6.25 0.63 -177.19)"  >
<path style="stroke: none; stroke-width: 1; stroke-dasharray: none; stroke-linecap: butt; stroke-dashoffset: 0; stroke-linejoin: miter; stroke-miterlimit: 4; fill: rgb(88,17,102); fill-rule: nonzero; opacity: 1;" vector-effect="non-scaling-stroke"  transform=" translate(-64.4, -35.15)" d="M 82.4 52 L 46.3 52 C 41.3 52 37.3 47.9 37.3 43 L 37.3 22.2 C 37.3 21.5 37.699999999999996 20.9 38.3 20.5 C 41.099999999999994 19.1 44.099999999999994 18.3 47.3 18.3 L 81.5 18.3 C 84.7 18.3 87.7 19 90.5 20.5 C 91.1 20.8 91.5 21.5 91.5 22.2 L 91.5 43 C 91.4 48 87.4 52 82.4 52 z M 41 23.4 L 41 43 C 41 45.9 43.4 48.3 46.3 48.3 L 82.4 48.3 C 85.30000000000001 48.3 87.7 45.9 87.7 43 L 87.7 23.4 C 85.7 22.599999999999998 83.60000000000001 22.099999999999998 81.5 22.099999999999998 L 47.2 22.099999999999998 C 45 22.2 42.9 22.6 41 23.4 z" stroke-linecap="round" />
</g>
		<g transform="matrix(6.25 0 0 6.25 233.44 166.25)"  >
<rect style="stroke: none; stroke-width: 1; stroke-dasharray: none; stroke-linecap: butt; stroke-dashoffset: 0; stroke-linejoin: miter; stroke-miterlimit: 4; fill: rgb(88,17,102); fill-rule: nonzero; opacity: 0.5;" vector-effect="non-scaling-stroke"  x="-1.95" y="-22.2" rx="0" ry="0" width="3.9" height="44.4" />
</g>
		<g transform="matrix(6.25 0 0 6.25 -230.94 172.5)"  >
<rect style="stroke: none; stroke-width: 1; stroke-dasharray: none; stroke-linecap: butt; stroke-dashoffset: 0; stroke-linejoin: miter; stroke-miterlimit: 4; fill: rgb(88,17,102); fill-rule: nonzero; opacity: 0.5;" vector-effect="non-scaling-stroke"  x="-1.95" y="-22.2" rx="0" ry="0" width="3.9" height="44.4" />
</g>
</g>
</g>
</svg>